<svg viewBox="0 0 26 32" fill="none" xmlns="http://www.w3.org/2000/svg">
  <path d="M13.2025 9.19433C11.9417 9.19433 9.99013 7.7572 7.93493 7.80913C5.22346 7.84373 2.73649 9.3848 1.33757 11.8263C-1.47753 16.7264 0.612213 23.9641 3.35824 27.9467C4.70535 29.8859 6.29424 32.0677 8.40127 31.9984C10.4219 31.9118 11.1818 30.6825 13.6343 30.6825C16.0694 30.6825 16.7602 31.9984 18.9018 31.9465C21.0779 31.9118 22.4595 29.9725 23.7893 28.0159C25.3265 25.7649 25.9655 23.5832 26 23.462C25.9482 23.4447 21.7687 21.8344 21.7169 16.9861C21.6823 12.9344 25.0156 10.9951 25.171 10.9085C23.2713 8.1208 20.3525 7.80913 19.3335 7.73986C16.6739 7.53206 14.4459 9.19433 13.2025 9.19433ZM17.6929 5.10797C18.8154 3.75739 19.5581 1.87003 19.3508 0C17.7447 0.0692606 15.8103 1.07354 14.6532 2.42412C13.617 3.61887 12.7189 5.54085 12.9607 7.37626C14.7395 7.5148 16.5703 6.45855 17.6929 5.10797Z" fill="currentColor" />
</svg>