<svg viewBox="0 0 127 100" fill="none" xmlns="http://www.w3.org/2000/svg">
  <path d="M70.0602 46.8439C69.0204 44.0842 68.1539 41.6713 67.2296 39.2873C66.0021 36.152 63.8503 34.6494 60.2977 34.6927C47.8925 34.8517 35.4728 34.7939 23.0531 34.8228C22.5621 34.8228 22.0711 34.8228 21.4212 34.8228C24.0351 42.4804 26.5913 49.9792 29.1619 57.4635C32.6278 67.5485 36.0649 77.6335 39.5309 87.7185C39.8486 88.6577 40.2385 89.5968 40.6717 90.4926C42.3469 94.0325 46.1595 94.307 48.4124 91.0417C49.4666 89.5246 49.8854 87.8052 49.9576 85.9703C50.0876 82.6905 51.0552 81.7513 54.2756 81.7513C62.8105 81.7369 71.3599 81.7513 79.8948 81.7513C82.6098 81.7513 82.6098 81.7513 81.6567 79.1073C80.3425 75.4807 79.1005 71.8108 77.6853 68.2276C77.1798 66.9706 77.3675 66.1325 78.2196 65.1645C79.4471 63.7775 80.5447 62.2748 81.9166 60.541C83.7796 65.6846 85.5414 70.5393 87.3177 75.3795C88.0831 77.4601 88.3575 80.162 89.845 81.3901C91.3613 82.6327 94.1052 81.708 96.3148 81.7513C99.2608 81.8091 102.192 81.7369 105.139 81.7802C107.608 81.8236 108.778 83.0372 108.836 85.5224C109.023 94.2059 103.463 99.9564 94.8273 99.9564C78.1041 99.9564 61.3953 99.8841 44.672 99.9997C40.1663 100.029 37.2058 98.0347 35.1984 94.2203C33.1477 90.3337 31.978 86.1147 30.5627 81.9969C27.1256 72.0564 23.7463 62.1014 20.4103 52.1176C19.9771 50.8172 19.4139 50.3548 18.013 50.3837C13.2762 50.4849 8.53943 50.4415 3.80263 50.4126C1.44866 50.3982 0.13449 49.2423 0.0333993 46.9161C-0.139899 42.7261 0.336671 38.5938 2.04077 34.7072C3.84595 30.5894 6.92199 28.2921 11.5433 28.2776C27.9777 28.2343 44.4121 28.1042 60.832 28.1331C67.865 28.1476 73.8871 33.6524 74.7392 40.4721C74.797 40.9778 74.6237 41.2812 74.3493 41.628C73.0062 43.2462 71.6487 44.9078 70.0602 46.8439ZM79.1727 88.3109C72.0675 88.3109 64.9768 88.2965 57.8715 88.3254C57.3228 88.3254 56.5429 87.9063 56.283 88.8888C55.9075 90.3192 55.5031 91.7496 55.0988 93.18C55.4309 93.2523 55.7486 93.3823 56.0808 93.3823C69.4969 93.3823 82.9131 93.3968 96.3148 93.3534C98.5821 93.339 100.2 92.1831 101.196 90.0736C101.831 88.7155 101.73 88.2531 100.041 88.2676C93.0943 88.3542 86.1335 88.3109 79.1727 88.3109ZM17.4643 43.853C16.7278 41.2957 16.1645 38.8539 14.7637 36.7589C12.9008 33.9559 9.57922 34.2015 8.13507 37.1923C7.32635 38.8828 7.00864 40.7177 6.80646 42.5671C6.70537 43.434 6.86422 43.8964 7.90401 43.8675C11.0378 43.8097 14.1716 43.853 17.4643 43.853Z" fill="currentColor" />
  <path d="M81.6856 47.8408C84.4439 47.9709 87 48.1153 89.5706 48.1876C91.0292 48.2309 92.4734 48.361 92.4878 50.2248C92.5022 52.1031 91.0725 52.262 89.5851 52.2042C86.3646 52.0887 83.1297 52.0598 79.9093 51.8575C78.6384 51.7708 77.7864 52.0598 76.9776 53.1C74.5804 56.2209 72.0675 59.2695 69.598 62.347C68.7316 63.4451 67.7206 64.3265 66.3487 63.2284C65.0345 62.1737 65.4967 60.9744 66.392 59.8475C81.1946 41.4402 96.1415 23.1773 114.222 7.80419C117.284 5.20347 120.475 2.77613 123.941 0.72445C124.577 0.34879 125.212 -0.359183 126.064 0.218754C126.887 0.782243 126.599 1.6636 126.497 2.40047C125.877 7.47187 123.912 12.0809 121.212 16.3432C116.648 23.5674 110.915 29.9247 105.601 36.571C103.492 39.2006 101.239 41.7147 99.1309 44.3443C98.12 45.6158 97.0224 46.2226 95.3039 46.0926C91.939 45.8325 88.5597 45.8903 85.2093 45.6735C83.5774 45.558 82.451 46.0059 81.6856 47.8408Z" fill="currentColor" />
  <path d="M50.102 53.6924C45.654 53.6924 41.2205 53.6491 36.7725 53.7213C35.5883 53.7357 34.9096 53.4757 34.6496 52.2187C34.2741 50.4993 32.57 48.5921 33.4221 47.2917C33.942 46.4826 36.6281 47.0317 38.3466 47.0317C45.8707 47.0172 53.3947 47.075 60.9187 46.9883C62.3628 46.9739 63.0416 47.3351 63.5182 48.7655C65.1356 53.7213 65.2078 53.6924 60.0089 53.6924C56.7018 53.6924 53.3947 53.6924 50.102 53.6924Z" fill="currentColor" />
  <path d="M37.3791 59.9486C43.7189 59.9486 49.8276 59.963 55.9219 59.9341C56.8029 59.9341 57.1928 60.2665 57.4383 61.0756C57.8715 62.506 58.4059 63.9219 58.8969 65.3379C59.1857 66.1614 59.1857 66.6671 58.0304 66.6527C52.2971 66.6093 46.5494 66.6093 40.8161 66.6527C39.9208 66.6527 39.5308 66.2915 39.2853 65.5257C38.6788 63.7774 38.0723 62.0292 37.3791 59.9486Z" fill="currentColor" />
</svg>