<svg viewBox="0 0 29 32" fill="none" xmlns="http://www.w3.org/2000/svg">
  <path fill-rule="evenodd" clip-rule="evenodd" d="M3.84705 27.5025C3.82149 27.4866 3.80096 27.47 3.78595 27.453C3.59865 27.2407 3.71884 26.8594 3.8537 26.4314C3.92246 26.2132 3.99503 25.9829 4.0326 25.7568C4.08439 25.4034 4.02433 25.1198 3.97025 24.8645C3.95619 24.7981 3.94254 24.7337 3.93136 24.6705L3.93103 24.6686C3.90305 24.5096 3.89081 24.3579 3.92721 24.202C3.94677 24.1174 4.00972 24.0485 4.10261 23.9904C4.10545 23.9886 4.1083 23.9868 4.11119 23.9851C4.31533 23.8612 4.65672 23.7865 5.00078 23.7112C5.35161 23.6344 5.70521 23.557 5.91894 23.4262C6.03671 23.3541 6.13332 23.2517 6.21713 23.1334C6.28663 23.0354 6.34733 22.9265 6.40401 22.815C6.43807 22.748 6.47066 22.6801 6.50285 22.613C6.54879 22.5173 6.59388 22.4234 6.64113 22.3364L6.6422 22.3345C6.72603 22.1805 6.81673 22.0486 6.93107 21.9679C6.93521 21.965 6.93945 21.9621 6.94364 21.9594C6.95245 21.9535 6.96139 21.948 6.97049 21.9427C7.03255 21.9057 7.10245 21.8937 7.17754 21.9018C7.46496 21.9333 7.82859 22.2593 8.11824 22.5984C8.2609 22.7654 8.3857 22.9355 8.47481 23.0754C8.53536 23.1698 8.62923 23.3262 8.74475 23.5208C8.78942 23.596 8.83734 23.677 8.88783 23.7623C8.90869 23.7975 8.92998 23.8335 8.95166 23.87C9.01831 23.9826 9.08866 24.1012 9.16132 24.2232C9.21923 24.3203 9.27862 24.4195 9.33876 24.5194C9.34616 24.5317 9.35358 24.5441 9.36101 24.5563C9.43833 24.6846 9.51679 24.8136 9.59487 24.9402C9.93152 25.4867 10.2616 25.9916 10.4666 26.2139C10.4773 26.2255 10.488 26.2371 10.4986 26.2488C10.8024 26.5828 11.0861 26.981 11.2189 27.3855C11.2806 27.5736 11.3097 27.7631 11.2931 27.9482C11.2889 27.995 11.2817 28.0415 11.2714 28.0876C11.2493 28.1928 11.2104 28.2933 11.1609 28.3877C11.1461 28.4161 11.1303 28.4439 11.1137 28.4712C11.0679 28.5465 11.016 28.6173 10.9617 28.683C10.8518 28.8157 10.7317 28.9274 10.6306 29.0113C10.4967 29.1225 10.396 29.1854 10.396 29.1854C10.3353 29.2043 10.2649 29.2147 10.1861 29.2178L10.1824 29.2179C9.89436 29.2283 9.4973 29.1414 9.07236 29.0113C9.02318 28.9963 8.97364 28.9806 8.92385 28.9645C8.68926 28.8885 8.44917 28.8016 8.21673 28.7124C7.819 28.5598 7.44364 28.4008 7.15649 28.2791C7.14627 28.2747 7.13617 28.2705 7.12618 28.2662C7.09689 28.2539 7.06858 28.2419 7.04135 28.2303C6.89164 28.1668 6.70078 28.1112 6.48661 28.061C6.22409 27.9994 5.92655 27.9459 5.62685 27.8956L5.62571 27.8955C5.51875 27.8775 5.41152 27.86 5.30552 27.8427C4.66446 27.7379 4.06809 27.6405 3.84705 27.5025ZM3.11679 28.0435L3.11404 28.0415C2.83414 27.8323 2.70529 27.5581 2.81555 27.192C2.87197 27.0046 2.927 26.8366 2.97756 26.6824C3.11104 26.275 3.21337 25.9627 3.22786 25.6389C3.2281 25.6337 3.22831 25.6284 3.22849 25.6232C3.23612 25.4107 3.2056 25.1925 3.12097 24.9387C3.00711 24.5946 2.94248 24.2663 2.99415 23.9863L2.99455 23.9842C3.06298 23.6178 3.3312 23.3343 3.94985 23.2061C4.61368 23.0768 5.09934 22.9111 5.44723 22.6554C5.67565 22.4874 5.84467 22.2808 5.96573 22.0202C6.17918 21.5643 6.43146 21.3567 6.56907 21.2712C6.57302 21.2688 6.57688 21.2664 6.58063 21.2642C6.63696 21.2303 6.67123 21.2185 6.67123 21.2185C6.67123 21.2185 6.65424 21.1785 6.63234 21.1063C6.58272 20.9424 6.50797 20.6118 6.54935 20.2019C6.56015 20.0949 6.57885 19.9825 6.608 19.8662C6.65504 19.6785 6.72926 19.4808 6.84121 19.2794C7.09255 18.8343 7.34276 18.1127 7.61031 17.3409C7.70918 17.0558 7.81043 16.7638 7.91497 16.4764C7.91578 16.4742 7.91658 16.472 7.91739 16.4697C8.17775 15.7544 8.45861 15.0683 8.77434 14.5875C9.1548 14.0122 9.62813 13.3832 10.0352 12.8422C10.0379 12.8385 10.0407 12.8348 10.0434 12.8311C10.0446 12.8296 10.0456 12.8282 10.0468 12.8267C10.2554 12.5494 10.4462 12.2957 10.5973 12.085C10.7584 11.8605 10.8745 11.6847 10.9195 11.5811C10.93 11.5571 10.9401 11.5305 10.9497 11.5013C10.9872 11.3876 11.0175 11.2345 11.0403 11.0459C11.0514 10.9543 11.0608 10.8544 11.0683 10.7465C11.0742 10.6633 11.079 10.5753 11.0827 10.4828C11.0848 10.432 11.0865 10.3799 11.088 10.3265C11.0921 10.1691 11.0935 10.0001 11.092 9.82038C11.0903 9.61665 11.0849 9.39914 11.076 9.169C11.0691 8.99371 11.0601 8.8111 11.0489 8.62167C11.0455 8.56381 11.0414 8.5035 11.0367 8.44093C11.0318 8.37514 11.0264 8.30676 11.0205 8.23621C11.0132 8.14922 11.0054 8.0588 10.9972 7.96537C10.9937 7.92521 10.9902 7.88449 10.9866 7.84325C10.9863 7.83971 10.986 7.83617 10.9857 7.83264C10.9721 7.67531 10.9583 7.5105 10.9457 7.34013C10.9017 6.74167 10.8737 6.07458 10.9291 5.42235C10.9607 5.05083 11.0193 4.68413 11.1173 4.33765C11.3088 3.6612 11.6507 3.06184 12.2359 2.65428C14.0757 1.37283 17.489 1.19512 18.8053 4.20157C19.4433 5.65657 19.4836 6.95816 19.5204 8.14492C19.5596 9.40669 19.5947 10.5386 20.3397 11.5871C21.7853 13.6157 23.6658 16.314 24.2359 17.9918C24.5983 19.063 24.483 20.2753 24.3508 21.0165C24.2751 21.4416 24.1938 21.7118 24.1938 21.7118C24.1938 21.7118 24.2262 21.7404 24.2767 21.7945C24.4586 21.9893 24.8742 22.5146 24.8537 23.2266C24.8534 23.2354 24.8531 23.2442 24.8527 23.253C24.8484 23.3376 24.8496 23.4186 24.8558 23.496L24.8559 23.4974C24.8756 23.7403 24.9447 23.949 25.0512 24.1297C25.1019 24.2156 25.161 24.2953 25.2272 24.3691L25.2285 24.3706C25.4675 24.6366 25.7991 24.8291 26.1629 24.9795C26.8162 25.2493 27.0647 26.0603 26.3189 26.7044C26.317 26.7061 26.315 26.7078 26.3131 26.7095C26.2083 26.7993 26.084 26.8858 25.9388 26.967C25.7324 27.083 25.4978 27.2111 25.247 27.3481C24.714 27.6393 24.1076 27.9705 23.5427 28.31C23.3413 28.4311 23.1452 28.5532 22.9595 28.675L22.9587 28.6755C22.8217 28.7654 22.6905 28.855 22.567 28.9438C22.2845 29.1471 22.0427 29.3464 21.8665 29.5347C21.3235 30.1121 20.5706 30.2708 19.9687 30.2103C19.9667 30.2101 19.9648 30.21 19.9629 30.2098C19.6951 30.1822 19.4575 30.1112 19.282 30.0146C18.7119 29.7063 18.4065 29.0003 18.4065 29.0003C18.4065 29.0003 18.177 28.9425 17.8006 28.8737C17.4011 28.8006 16.8362 28.7152 16.2048 28.6731C16.033 28.6617 15.8563 28.6535 15.6768 28.6496L15.6721 28.6495C15.5059 28.6459 15.3372 28.6461 15.1676 28.6509C14.3211 28.6719 13.4956 28.7747 12.8893 28.8705C12.7739 28.8888 12.6665 28.9067 12.5684 28.9239C12.1696 28.9935 11.9243 29.0488 11.9243 29.0488C11.9243 29.0488 11.6612 29.7416 10.8829 29.9651C10.811 29.9857 10.7347 30.0023 10.6539 30.014C10.4848 30.0385 10.2956 30.0414 10.0845 30.0146C9.3981 29.9303 8.64596 29.653 7.88213 29.3713C7.49866 29.2299 7.11225 29.0875 6.72972 28.9677L6.7286 28.9674C6.32221 28.8403 5.92023 28.7389 5.53085 28.692C4.57921 28.5787 3.61286 28.4123 3.11679 28.0435ZM5.31857 30.4571C4.58812 30.37 3.59546 30.2292 2.80221 29.8912C2.40426 29.7216 1.84909 29.4187 1.45127 28.858C0.984631 28.2003 0.89198 27.4143 1.11324 26.6795C1.17652 26.4692 1.24173 26.2703 1.2934 26.1127C1.30972 26.0628 1.32468 26.0172 1.33782 25.9766C1.39947 25.7859 1.42771 25.686 1.44269 25.6152C1.44872 25.5867 1.45087 25.5703 1.45159 25.5628C1.45004 25.5541 1.44566 25.5345 1.43443 25.5009L1.4332 25.4971C1.28357 25.045 1.04052 24.181 1.34358 23.2876C1.71922 22.1804 2.67241 21.6552 3.5893 21.4653L3.59962 21.4632L3.60997 21.4611C4.07659 21.3703 4.28462 21.2853 4.36884 21.2386C4.48801 20.9885 4.62103 20.7696 4.76183 20.5788C4.74224 19.9779 4.8469 19.2076 5.28757 18.4153L5.29312 18.4053C5.45917 18.1113 5.64977 17.5641 5.93753 16.7377C5.97361 16.6342 6.01122 16.5262 6.0505 16.4137C6.34722 15.5644 6.75281 14.4272 7.28834 13.6117L7.29147 13.6069C7.70267 12.9851 8.20509 12.3175 8.60388 11.7875C8.62218 11.7632 8.64026 11.7391 8.65811 11.7154C8.8697 11.4342 9.04391 11.2017 9.17538 11.0172C9.2164 10.9596 9.24684 10.9153 9.26877 10.8829C9.28257 10.7859 9.29634 10.6408 9.30513 10.4411C9.32376 10.0178 9.31634 9.43941 9.27417 8.72666C9.26701 8.60483 9.25247 8.43913 9.23514 8.24181C9.17373 7.54249 9.07687 6.43949 9.14547 5.4323C9.23407 4.13166 9.61862 2.31079 11.2197 1.19551C12.4869 0.312936 14.2458 -0.176303 15.9586 0.0586806C17.7616 0.306053 19.5044 1.36653 20.4335 3.48771C21.212 5.26338 21.2604 6.86545 21.2961 8.04344C21.2977 8.09685 21.2993 8.1494 21.3009 8.20105C21.3405 9.45896 21.4148 10.0303 21.7882 10.5564C22.5121 11.5721 23.3676 12.7871 24.1172 13.9684C24.8456 15.1162 25.5604 16.364 25.9192 17.4197L25.92 17.4221C26.3253 18.6204 26.2901 19.8495 26.195 20.6847C26.1699 20.9064 26.1391 21.1113 26.1071 21.2941C26.3714 21.7438 26.6459 22.4108 26.6317 23.2355C26.6813 23.2642 26.7497 23.2983 26.8417 23.3363C27.7892 23.7278 28.5565 24.6524 28.5541 25.843C28.5517 27.06 27.763 27.9829 26.8083 28.5177C26.5654 28.6541 26.3142 28.7912 26.0559 28.9322C25.6084 29.1763 25.1397 29.4323 24.6561 29.7164C23.8683 30.1794 23.3604 30.5402 23.1648 30.7492L23.1616 30.7526C22.4288 31.5318 21.5084 31.8792 20.6957 31.9724C19.925 32.0608 19.0943 31.9389 18.4302 31.5749C17.9111 31.2927 17.5428 30.9004 17.3055 30.5917C17.2524 30.5828 17.1968 30.5738 17.1389 30.5648C16.5996 30.4812 15.905 30.4086 15.2179 30.428L15.2116 30.4282C14.4844 30.4461 13.7559 30.5343 13.1974 30.6217C13.1209 30.6337 13.0481 30.6455 12.9796 30.6571C12.908 30.7381 12.8285 30.8204 12.7405 30.902C12.1124 31.4849 11.1408 31.9402 9.86352 31.7786C8.96733 31.6678 8.04264 31.326 7.33991 31.0662C7.30127 31.0519 7.2633 31.038 7.22604 31.0242C6.40472 30.7214 5.81694 30.5172 5.31857 30.4571ZM1.45235 25.5682L1.45204 25.5655L1.45235 25.5682ZM13.0006 27.1691C13.4751 27.1886 14.1825 27.1775 15.1226 27.0568C15.1244 27.0565 15.1264 27.0563 15.1282 27.0561C15.2271 27.0434 15.3284 27.0294 15.4324 27.0141C15.635 26.9839 15.8307 26.9389 16.0189 26.8823C16.7879 26.6513 17.4323 26.2269 17.9148 25.8215C17.9286 25.8099 17.9423 25.7983 17.9558 25.7868C18.028 25.7251 18.0963 25.6641 18.1608 25.6043C18.6323 25.1674 18.8939 24.8019 18.8939 24.8019C18.8939 24.8019 18.8939 24.6152 18.897 24.3344C18.8971 24.3201 18.8973 24.3054 18.8975 24.2905V24.2884C18.9041 23.7279 18.9227 22.8359 18.9756 22.2769C18.9891 22.1339 19.0049 22.0128 19.0233 21.9245C19.0511 21.792 19.1194 21.7002 19.2095 21.6379C19.2111 21.6369 19.2128 21.6357 19.2145 21.6346C19.5446 21.4122 20.1576 21.5753 20.1576 21.5753C20.1576 21.5753 20.178 21.5096 20.2075 21.3878C20.2465 21.2262 20.3015 20.9657 20.3455 20.6295C20.3765 20.392 20.4022 20.1166 20.4129 19.8114C20.4285 19.3637 20.4121 18.8519 20.3335 18.3016C20.1388 16.9358 18.6667 13.4207 17.7798 11.5502C17.7193 11.4223 17.6613 11.3022 17.6068 11.1909C17.5682 11.1122 17.5311 11.0375 17.4961 10.9681C17.3337 10.6466 17.2115 10.43 17.1508 10.3609C17.1457 10.3551 17.141 10.3503 17.1369 10.3467C17.0418 10.2639 16.7762 10.357 16.4279 10.5325C16.4215 10.5358 16.415 10.539 16.4085 10.5423C16.3164 10.5891 16.2187 10.6415 16.1171 10.6976L16.1154 10.6986C15.9116 10.8112 15.6919 10.9394 15.4688 11.0695C15.3996 11.1097 15.3302 11.1503 15.2609 11.1905C15.2349 11.2055 15.209 11.2206 15.183 11.2356C14.783 11.4668 14.3898 11.6858 14.0758 11.8151C14.0266 11.8353 13.9794 11.8534 13.9343 11.8689C13.9058 11.8787 13.8779 11.8877 13.8513 11.8954C13.8249 11.903 13.7981 11.9089 13.771 11.9135C13.6369 11.9359 13.4957 11.9226 13.3524 11.8835C13.1524 11.829 12.9483 11.7245 12.7536 11.5972C12.68 11.549 12.6076 11.4975 12.5374 11.4443C12.5357 11.4431 12.5341 11.4418 12.5325 11.4406C12.1141 11.1225 11.7705 10.7421 11.658 10.6126C11.6325 10.5833 11.6189 10.5668 11.6189 10.5668C11.6223 10.5773 11.6256 10.5879 11.6286 10.5987C11.7148 10.9035 11.6675 11.3669 11.5343 11.8479L11.5332 11.8515C11.5194 11.901 11.5048 11.9508 11.4892 12.0005C11.418 12.2288 11.3286 12.4576 11.2262 12.6722C11.0856 12.9668 10.9202 13.2345 10.7433 13.4366C10.4254 13.8041 10.1661 14.556 9.90449 15.3296L9.90307 15.3339C9.89658 15.3531 9.89001 15.3724 9.88354 15.3916C9.64941 16.0841 9.41205 16.7863 9.12772 17.2386C8.69042 17.927 8.36598 19.1015 8.38379 20.1374C8.38387 20.1417 8.38395 20.1462 8.38404 20.1505C8.38412 20.1548 8.38421 20.159 8.38431 20.1633C8.38691 20.2775 8.39372 20.39 8.40504 20.4999C8.41957 20.6409 8.44152 20.7776 8.47157 20.9082C8.50401 21.0493 8.54589 21.1833 8.598 21.3079C8.64028 21.409 8.69947 21.5111 8.77237 21.6138C8.95589 21.8725 9.22629 22.1355 9.53235 22.3976L9.53477 22.3996C9.78834 22.6166 10.0663 22.8329 10.3395 23.0455C10.4598 23.1391 10.5792 23.232 10.6952 23.324C11.3094 23.8108 11.8283 24.2705 11.8835 24.6652C11.9047 24.8174 11.8979 24.9484 11.8716 25.061C11.8682 25.0757 11.8644 25.0902 11.8603 25.1043C11.7049 25.6419 11.0953 25.7326 11.0953 25.7326L12.2762 27.0977C12.2762 27.0977 12.3125 27.1054 12.3851 27.1161C12.4177 27.1209 12.4576 27.1262 12.5048 27.1317C12.6236 27.1456 12.7889 27.1604 13.0006 27.1691ZM12.2299 10.2668C12.2529 10.2926 12.2771 10.3183 12.3021 10.3438C12.4104 10.4544 12.5345 10.5617 12.6538 10.6553C12.7209 10.7081 12.7865 10.7565 12.8468 10.7986C12.8556 10.8048 12.8644 10.8109 12.873 10.8168C12.8903 10.8287 12.907 10.8399 12.9231 10.8506C12.9906 10.8945 13.0524 10.9369 13.1105 10.9768C13.1432 10.9992 13.1746 11.0208 13.2052 11.0414C13.2889 11.0976 13.3661 11.1461 13.4438 11.1827C13.5148 11.2161 13.5862 11.2395 13.6633 11.2497L13.6675 11.2503C13.7249 11.2575 13.7855 11.2573 13.8513 11.2485C14.0752 11.2187 14.5995 10.9323 15.0826 10.6479C15.109 10.6323 15.1352 10.6168 15.1613 10.6013C15.1959 10.5807 15.2302 10.5603 15.264 10.54C15.2743 10.5339 15.2844 10.5278 15.2946 10.5216C15.4442 10.4318 15.5842 10.3462 15.703 10.2735C15.7117 10.2682 15.7203 10.263 15.7288 10.2577C15.7322 10.2557 15.7356 10.2535 15.7391 10.2515C15.7655 10.2353 15.7906 10.2199 15.8146 10.2054C15.8432 10.1878 15.8709 10.1711 15.8976 10.1554C16.0189 10.0839 16.1202 10.0307 16.2044 9.98652C16.4323 9.86687 16.5346 9.81318 16.5666 9.64056C16.59 9.50083 16.4623 9.36127 16.2781 9.24296C16.1729 9.1754 16.0492 9.11478 15.9247 9.06509C15.8879 9.05043 15.8511 9.03674 15.8146 9.02403C15.7612 9.00465 15.6949 8.97905 15.6194 8.94927C15.5371 8.91674 15.4438 8.87912 15.3442 8.83904C15.2624 8.80607 15.1763 8.7714 15.0888 8.73647C15.086 8.73538 15.0834 8.7343 15.0806 8.73321C15.0785 8.73238 15.0764 8.73155 15.0743 8.73072C15.0228 8.7102 14.9708 8.68962 14.9189 8.66925C14.8114 8.62706 14.704 8.58582 14.6017 8.54808C14.5933 8.545 14.585 8.54194 14.5767 8.53891C14.5415 8.526 14.5069 8.51355 14.4731 8.50165C14.3018 8.4412 14.1525 8.39505 14.0514 8.37722C13.9396 8.35646 13.8061 8.38892 13.6673 8.45075C13.6274 8.46851 13.5871 8.4887 13.5467 8.51075C13.5215 8.52455 13.4961 8.53908 13.4709 8.5542L13.4699 8.55482C13.4673 8.55638 13.4647 8.55794 13.4621 8.55952C13.4039 8.59481 13.3461 8.63315 13.2899 8.67286C13.2531 8.6989 13.217 8.72554 13.182 8.75226C13.1711 8.76058 13.1602 8.7689 13.1496 8.77721C13.1437 8.78181 13.1377 8.78641 13.132 8.791C13.0779 8.83347 13.027 8.87558 12.9805 8.9154C12.9314 8.95745 12.8873 8.99683 12.8497 9.0314C12.8481 9.03283 12.8466 9.03425 12.8451 9.03558C12.8334 9.04643 12.8222 9.05683 12.8118 9.0666C12.7969 9.0802 12.7806 9.0946 12.7634 9.10972C12.7481 9.12314 12.7321 9.137 12.7153 9.15132C12.6849 9.17745 12.6522 9.20492 12.6185 9.23309C12.5694 9.2738 12.5177 9.31612 12.4662 9.35789C12.2419 9.53958 12.019 9.71185 12.019 9.71185C11.9776 9.78376 11.9842 9.87052 12.0236 9.96447C12.0477 10.0223 12.0842 10.0827 12.1295 10.144C12.1594 10.1847 12.1933 10.2258 12.2299 10.2668ZM12.4002 8.6133C12.4268 8.58865 12.4535 8.56334 12.4805 8.5374C12.4865 8.53162 12.493 8.52536 12.4991 8.51952L12.5026 8.51604C12.5121 8.50687 12.5217 8.49762 12.5312 8.48831C12.5365 8.48318 12.5417 8.47802 12.547 8.47285C12.5388 8.47564 12.5309 8.47841 12.5231 8.48116C12.5168 8.48338 12.5105 8.48559 12.5041 8.48779C12.5009 8.4889 12.4976 8.49 12.4943 8.49109C12.4869 8.49234 12.4794 8.49337 12.472 8.49417C12.41 8.50088 12.3484 8.49238 12.2889 8.4707C12.282 8.46817 12.2752 8.46548 12.2683 8.4626C12.2656 8.46146 12.2629 8.46031 12.2602 8.45912C12.2481 8.45379 12.2361 8.44793 12.2243 8.44154C12.1092 8.37947 12.0049 8.26786 11.9246 8.12265C11.9113 8.09859 11.8986 8.07361 11.8866 8.04778C11.8502 7.96882 11.8204 7.88192 11.7991 7.78913C11.7933 7.76389 11.7881 7.7382 11.7836 7.71213L11.7828 7.70765C11.7823 7.70404 11.7817 7.70043 11.7811 7.69683C11.7809 7.69457 11.7805 7.69232 11.7801 7.69007C11.779 7.68172 11.7778 7.67338 11.7768 7.66506C11.7745 7.64695 11.7726 7.6289 11.7711 7.61096C11.7671 7.56405 11.7656 7.51783 11.7664 7.47259C11.7673 7.42734 11.7705 7.38309 11.7759 7.34017C11.7781 7.32237 11.7808 7.30474 11.7838 7.28742C11.7889 7.25794 11.7951 7.22919 11.8024 7.20129C11.8348 7.0765 11.888 6.9687 11.9577 6.88827C11.9654 6.87945 11.9732 6.87096 11.9812 6.86282C11.9858 6.85814 11.9905 6.85358 11.9953 6.84912L11.9962 6.84822C11.9994 6.84528 12.0025 6.84239 12.0058 6.83956C12.063 6.78895 12.1289 6.75478 12.2017 6.74132C12.2034 6.74099 12.2052 6.74067 12.2071 6.74036C12.282 6.72902 12.3574 6.74077 12.4297 6.77174C12.5174 6.80928 12.6005 6.87506 12.6732 6.96225C12.6837 6.97484 12.694 6.98787 12.7041 7.00133C12.7309 7.03741 12.7561 7.07654 12.7793 7.11834C12.7873 7.13271 12.795 7.14737 12.8025 7.16234C12.8204 7.1985 12.837 7.23657 12.8519 7.27599C12.8598 7.29695 12.8672 7.31834 12.8741 7.34013C12.8819 7.36503 12.8892 7.39059 12.8957 7.41647C12.9038 7.44849 12.9107 7.48122 12.9166 7.51456L12.9171 7.51775C12.9177 7.52168 12.9184 7.5256 12.9189 7.52952C12.9273 7.58597 12.9323 7.64184 12.9339 7.69649C12.9363 7.77669 12.9317 7.85429 12.9206 7.92734L12.9202 7.93001C12.9124 7.98025 12.9017 8.0283 12.888 8.07356C12.8777 8.10785 12.8657 8.14054 12.8521 8.17134C12.8484 8.18 12.8445 8.18849 12.8404 8.19684C12.837 8.20393 12.8335 8.2109 12.8299 8.21776C12.8347 8.2129 12.8395 8.20809 12.8444 8.20332C12.8644 8.18376 12.885 8.16477 12.9064 8.14591C12.9077 8.14469 12.9091 8.14348 12.9105 8.14227C12.9351 8.12055 12.9605 8.09895 12.9865 8.07674C12.9984 8.0667 13.0104 8.05654 13.0225 8.04618C13.1513 7.93274 13.2851 7.85834 13.4193 7.81043C13.4325 7.80576 13.4456 7.80132 13.4587 7.79713C13.4694 7.74163 13.4785 7.68613 13.4859 7.63008C13.4942 7.56699 13.5001 7.5032 13.5031 7.43792C13.5033 7.43372 13.5034 7.42951 13.5036 7.42529C13.5037 7.42257 13.5038 7.41984 13.504 7.41712L13.5041 7.41451C13.5049 7.38996 13.5053 7.36518 13.5053 7.34013C13.5053 7.3309 13.5053 7.3217 13.5052 7.31251C13.5046 7.2619 13.5024 7.21186 13.4986 7.16251C13.4945 7.10741 13.4884 7.05305 13.4806 6.99979C13.4633 6.88332 13.4374 6.7716 13.4039 6.66619C13.3121 6.37714 13.163 6.13551 12.9785 5.97316C12.8884 5.89393 12.7899 5.83357 12.6855 5.7958C12.6035 5.76613 12.5178 5.7504 12.4297 5.7504C12.3037 5.7504 12.1831 5.78215 12.0712 5.84061C12.0659 5.84334 12.0607 5.84611 12.0555 5.84896C11.6633 6.06409 11.3821 6.60917 11.3613 7.26253C11.3605 7.28823 11.3601 7.3141 11.3601 7.34013C11.3601 7.37625 11.3609 7.4121 11.3625 7.44763C11.3629 7.45529 11.3633 7.46293 11.3637 7.47056C11.3691 7.56892 11.3806 7.66479 11.3975 7.75731C11.3981 7.7608 11.3988 7.76429 11.3994 7.76777L11.4004 7.77279L11.4013 7.77769C11.4098 7.82205 11.4197 7.86563 11.4307 7.90833C11.4325 7.91524 11.4343 7.92214 11.4361 7.92901C11.4762 8.07793 11.5309 8.21581 11.5974 8.33866C11.6455 8.42732 11.6997 8.50816 11.759 8.57966C11.8613 8.70288 11.9789 8.79854 12.1062 8.85852C12.1444 8.83099 12.1823 8.8018 12.22 8.77111C12.2774 8.72431 12.3345 8.67396 12.3925 8.62045C12.3951 8.61807 12.3977 8.61569 12.4002 8.6133ZM17.1956 7.71988C17.2041 7.69032 17.2118 7.66038 17.2189 7.63008C17.2537 7.48165 17.2722 7.32471 17.2722 7.16242C17.2722 6.23621 16.666 5.48311 15.9138 5.48311C15.9103 5.48311 15.9067 5.48313 15.9033 5.48316C15.5633 5.48637 15.254 5.6434 15.0178 5.90041C14.8286 6.10643 14.6863 6.37669 14.6128 6.68346C14.6002 6.73579 14.5897 6.78918 14.5812 6.8435C14.5652 6.94681 14.5568 7.05346 14.5568 7.16251C14.5568 7.18727 14.5572 7.21188 14.5581 7.23635C14.5584 7.24389 14.5586 7.25141 14.559 7.25891C14.56 7.27875 14.5611 7.29848 14.5626 7.31812C14.5632 7.32547 14.5637 7.33281 14.5643 7.34013C14.5729 7.43975 14.5883 7.53663 14.6099 7.63008C14.6329 7.72937 14.6626 7.82481 14.6983 7.91561C14.7011 7.91672 14.7041 7.91784 14.7069 7.91895C14.7917 7.95153 14.8868 7.98817 14.9898 8.02854C15.0591 8.05575 15.1321 8.08465 15.2079 8.11514C15.243 8.12927 15.2787 8.14372 15.315 8.15852C15.2828 8.09613 15.256 8.02656 15.2356 7.95279C15.2152 7.87865 15.2012 7.80029 15.1951 7.72074C15.1928 7.69064 15.1916 7.66036 15.1916 7.63008C15.1916 7.52913 15.2038 7.43167 15.2262 7.34013C15.2402 7.28287 15.2583 7.22794 15.2799 7.17592C15.2818 7.17145 15.2836 7.16701 15.2855 7.16258C15.3155 7.09281 15.3522 7.02841 15.3939 6.97102C15.3986 6.96457 15.4034 6.95822 15.4082 6.95194C15.537 6.7847 15.7123 6.68112 15.9033 6.68112C15.9068 6.68112 15.9103 6.68116 15.9138 6.68122L15.9176 6.68131C16.1803 6.68808 16.4062 6.88097 16.5265 7.16242C16.5607 7.24231 16.5863 7.32935 16.6018 7.42128C16.6036 7.43169 16.6053 7.44217 16.6068 7.45271C16.6086 7.46523 16.6102 7.47783 16.6116 7.49051C16.6167 7.5361 16.6193 7.58271 16.6193 7.63008C16.6193 7.93057 16.5121 8.2007 16.3429 8.37314C16.3394 8.37673 16.3359 8.38027 16.3323 8.38377C16.2802 8.43482 16.2226 8.47676 16.1605 8.50771C16.2215 8.53349 16.2798 8.55894 16.3362 8.58356C16.3668 8.59695 16.397 8.61009 16.4266 8.62291C16.4582 8.63656 16.4893 8.64984 16.5201 8.66267C16.5644 8.63553 16.6074 8.60546 16.6488 8.57269C16.8698 8.39786 17.0465 8.14575 17.1545 7.84729C17.1696 7.80569 17.1833 7.7632 17.1956 7.71988ZM20.3469 23.0008C20.3064 22.6802 20.3336 22.4177 20.3336 22.4177C20.3336 22.4177 20.2684 22.402 20.1819 22.4019C20.1013 22.4019 20.0022 22.4155 19.9202 22.4681C19.9108 22.474 19.9017 22.4806 19.8929 22.4876C19.8324 22.5362 19.8104 22.6847 19.8087 22.8867C19.8078 23.0026 19.8136 23.1368 19.8226 23.279C19.8236 23.2947 19.8246 23.3106 19.8257 23.3266C19.8339 23.4476 19.8441 23.5743 19.8543 23.7013C19.8691 23.8846 19.884 24.0687 19.8929 24.2383C19.901 24.4002 19.8959 24.5908 19.8802 24.8019C19.8655 24.9986 19.8416 25.2132 19.8106 25.439C19.8098 25.4447 19.809 25.4505 19.8082 25.4563C19.754 25.8467 19.6789 26.2701 19.5939 26.6925C19.5577 26.8721 19.5196 27.0515 19.4807 27.2281C19.4662 27.2962 19.4544 27.363 19.4451 27.4283C19.3856 27.8507 19.4331 28.2151 19.5467 28.5068C19.6206 28.6967 19.7227 28.8559 19.8414 28.9802C19.8436 28.9826 19.8459 28.985 19.8483 28.9873C19.8857 29.0259 19.9248 29.061 19.9651 29.0925C20.0187 29.1344 20.0746 29.17 20.1319 29.1991C20.1768 29.2219 20.2226 29.2406 20.2689 29.2551C20.5463 29.3441 20.9154 29.2323 21.3003 29.0051L21.3021 29.004C21.6586 28.7934 22.0284 28.4842 22.3516 28.144C22.3584 28.1368 22.3652 28.1296 22.372 28.1224C22.3833 28.1104 22.395 28.0983 22.4072 28.0862C22.5006 27.9933 22.6191 27.8973 22.7554 27.7998C23.0252 27.6067 23.3651 27.4075 23.7193 27.2142C23.7639 27.1899 23.8088 27.1656 23.8538 27.1414C24.0423 27.0403 24.2329 26.9411 24.4172 26.8459C24.4236 26.8427 24.43 26.8394 24.4364 26.8361C24.4816 26.8127 24.5264 26.7896 24.5707 26.7667C24.7763 26.6608 24.9708 26.5605 25.1423 26.4685C25.1681 26.4547 25.1932 26.4411 25.218 26.4276C25.3381 26.3621 25.4451 26.3013 25.5338 26.2462L25.5349 26.2454C25.5911 26.2105 25.6399 26.1779 25.6803 26.1477C25.7056 26.1288 25.7278 26.1107 25.7461 26.0939C25.8621 25.9851 25.8807 25.8764 25.8364 25.7702C25.7337 25.5251 25.2948 25.2932 24.9405 25.1062C24.9126 25.0915 24.8852 25.0771 24.8586 25.0628C24.8004 25.0318 24.7454 24.994 24.6936 24.9507C24.6365 24.9031 24.5833 24.8487 24.5341 24.789C24.5311 24.7853 24.528 24.7816 24.525 24.7778C24.2322 24.415 24.0852 23.8651 24.1124 23.4488C24.1179 23.3637 24.1141 23.2877 24.1039 23.2201L24.1032 23.2155C24.0468 22.8533 23.8056 22.7322 23.8056 22.7322C23.8056 22.7322 23.7922 22.7607 23.7671 22.8088C23.7238 22.892 23.6459 23.0336 23.5429 23.1875C23.5412 23.1901 23.5395 23.1927 23.5378 23.1953C23.4922 23.263 23.4418 23.333 23.3874 23.4013L23.3864 23.4026C23.3357 23.4661 23.2817 23.5282 23.2249 23.5855C23.1883 23.6225 23.1426 23.661 23.0893 23.7C23.0646 23.718 23.0382 23.7362 23.0104 23.7543C22.8886 23.8334 22.7383 23.9118 22.5709 23.9794C22.5053 24.006 22.4372 24.0309 22.3671 24.0536C22.3073 24.073 22.246 24.0906 22.1838 24.1064C22.0167 24.1487 21.8427 24.1765 21.6699 24.1829C21.6674 24.183 21.6648 24.1831 21.6621 24.1832C21.5518 24.1868 21.4421 24.1817 21.3352 24.1658C21.3318 24.1652 21.3285 24.1647 21.3251 24.1642L21.3206 24.1635C21.2027 24.1448 21.0883 24.113 20.9804 24.0653C20.9305 24.0434 20.8843 24.0176 20.8416 23.9885C20.7821 23.9479 20.7293 23.9009 20.6826 23.849C20.5904 23.7468 20.5213 23.6258 20.4699 23.498C20.4137 23.3584 20.3785 23.2107 20.3568 23.071C20.3563 23.0682 20.3559 23.0656 20.3555 23.0629C20.3523 23.042 20.3495 23.0213 20.3469 23.0008ZM20.0403 28.2948C20.0384 28.2912 20.0365 28.2876 20.0347 28.2844C20.0324 28.28 20.0306 28.2763 20.0291 28.2736L20.0403 28.2948ZM24.1982 25.8476L24.1835 25.9034C24.1996 25.8945 24.2157 25.8856 24.2318 25.8768C24.2206 25.8672 24.2094 25.8575 24.1982 25.8476Z" fill="currentColor" />
</svg>